M48
;Layer_Color=9474304
;FILE_FORMAT=2:4
INCH,TZ
;TYPE=PLATED
T1F00S00C0.0059
;TYPE=NON_PLATED
%
T01
X3920Y-8100
X3880Y-4400
X3960Y-3200
X4740Y-3570
X4620Y-4890
X4600Y-7322
X4950Y-7030
X5480Y-7040
X4880Y-7790
X7300Y-7730
X7660Y-7570
X7940Y-7560
X8420Y-7710
X8996Y-8026
X8950Y-8480
Y-8770
X9394Y-9084
X9860Y-9160
X9906Y-8496
X9660Y-8040
X9860Y-7660
X10470Y-7430
X10496Y-7006
X10480Y-6750
X9720
X9470Y-6480
X9810Y-6289
X10840Y-6280
X11312Y-6098
X10389Y-5381
X10200Y-4690
X9640Y-5104
X8970Y-5250
X8280Y-5020
X8060Y-5030
X7760Y-6320
X7350Y-6330
X7650Y-6970
X7885Y-6950
X8360Y-6760
X7990Y-8540
X7820Y-8770
X8020Y-8970
X7840Y-9180
X7150Y-8510
X7550Y-10990
X9183Y-10970
X9400Y-10680
X12820Y-6640
X13730Y-6150
X16400Y-7280
X17640Y-7290
X19430
X5990Y-3300
X20130Y-5720
X20510Y-9100
X25640Y-8880
X26980Y-8640
X30080Y-7900
X31670Y-8200
X33160Y-8090
X33520Y-7540
X34000Y-8400
X33410Y-9140
X32890Y-5260
X32170Y-5610
X32100Y-4780
X31270Y-5420
X29870Y-5780
X29097Y-4763
X33820Y-3160
X36220Y-3420
X36730Y-3150
X37740Y-4200
X36850Y-2970
X35620Y-2950
X35792Y-2728
X37500Y-1290
X38360Y-2014
X39290Y-2624
X40080Y-1894
X40570Y-1414
X41348Y-624
X41820Y-394
X43840Y-410
X44300Y-440
X45240Y550
X45130Y720
X45242Y1030
X45143Y1227
X44946
X45340Y1227
X45734Y1227
X46423Y1523
X46423Y2113
X45734Y3393
X45537
X45340
X45143
X44946
X44257Y2704
Y2507
Y2310
Y2113
Y1916
X42940Y2940
X41780Y3510
X42124Y4554
X42580Y4557
X44250Y5950
X44580Y6220
X45390Y6280
X45190Y5920
X45070Y5740
X45540Y5540
X48440Y6300
X48590Y6450
X48740Y6600
X48890Y6750
X46830Y9170
X40990Y7830
X40810Y8010
X40610Y7930
X40440Y7770
X41100Y7500
X41300
X39500Y6100
X40430Y2700
X41820Y-2724
X42530Y-2040
X43700Y-2060
X44680Y-2040
X45490Y-1710
X46270Y-1750
X45850Y-1030
X30930Y130
X30030Y1790
X28480Y1610
X28990Y3220
X29500
X32862Y6088
X32698Y6262
X32556Y6404
X32414Y6546
X32273Y6687
X32570Y7240
X33770Y6990
X34090Y6900
X34440Y7280
X22270Y3870
X22050
X22550Y2890
X22697Y2260
X22570Y2100
X22270Y2050
X21180Y3250
X24940Y-1870
X18400Y3246
X17965Y2865
X17570Y3150
X18000Y3700
X17140Y3980
X16300Y3300
X15800Y3530
X16110Y2320
X13790Y3590
X13020Y3040
X12590Y2740
X13366Y-960
X10504Y-490
X10741Y-209
X9530Y-30
X8760Y-20
X7930Y-850
X9140Y-1550
X9000Y-2550
X6340Y-2370
X6430Y-1490
X5547Y-2613
X5950Y2640
X8160Y3130
X7020Y6240
X6180Y7020
X8770Y7800
X9710Y7840
X10940Y7970
X12680Y8040
X13580Y8150
X3997Y9813
X3990Y11000
X4160Y11150
X1640Y9500
X4140Y-1700
M30
