M48
;Layer_Color=9474304
;FILE_FORMAT=2:4
INCH,TZ
;TYPE=PLATED
T2F00S00C0.0098
T3F00S00C0.0118
T4F00S00C0.0120
T6F00S00C0.0354
T7F00S00C0.0394
;TYPE=NON_PLATED
T8F00S00C0.0390
T9F00S00C0.0701
T10F00S00C0.1260
%
T02
X4510Y-7540
T03
X7390Y-7480
X8450Y-6300
X8360Y-5590
X9680Y-7190
X9670Y-8300
X37310Y-4510
X40240Y-4400
X41000Y-3640
T04
X698Y-12215
X728Y-11465
X1648
X1696Y-11030
X2176Y-10840
X2446Y-10450
X2566Y-10020
X2589Y-9307
X1686Y-9330
X698Y-9245
Y-10245
X1192Y-10780
X2636Y-11370
X3697Y-11245
X4010Y-11210
X3697Y-10245
X3370Y-12200
X2056Y-12210
X1698Y-8245
X2697
X3370Y-7510
X3290Y-6460
X2050Y-6870
X1698Y-6245
X490Y-6000
X698Y-7245
Y-4245
X1698
X2697
Y-3245
X698
X5460Y-3620
X5920Y-5090
X6110Y-5750
X5920Y-6250
X5650Y-6490
X6240Y-6610
X6970Y-7126
X7070Y-7430
X7040Y-5860
X7760Y-5060
X7490Y-4540
X8000Y-4000
X8320Y-4020
X9000Y-3310
X9700Y-3820
X9252Y-5148
X9570Y-5530
X8850Y-5790
X8528Y-6952
X9230Y-7550
X10430Y-7920
X11510Y-8570
X12490Y-8590
X12500Y-7790
X12080Y-7780
X12697Y-7245
X13698
X14140Y-7000
X14760Y-7400
X15330Y-7336
X15264Y-6332
X14864
X16000Y-6400
X16720Y-6050
X16890Y-6696
X17196Y-6656
X17723
X18950Y-6450
X18830Y-6070
X19193Y-4942
X19546Y-4540
X18900Y-3920
X17697Y-4245
X17871Y-4482
X17423Y-4942
X17220Y-4050
X16140
X16340Y-4650
X15650
X15454Y-4962
X15006Y-4930
X15026Y-4010
X15036Y-3710
X14759Y-3421
X13716Y-3370
X13686Y-3710
Y-4010
X13720Y-4440
X13740Y-5370
X13183Y-6207
X12268Y-6204
X12159Y-5645
X12060Y-5130
X12430Y-5140
X11600Y-4880
X11100Y-5060
X11000Y-4720
X11697Y-4245
X12150Y-4080
X12630Y-3560
X11690Y-6600
X12000Y-9500
X11510Y-10000
X12500
X13000Y-9500
X14000
X15000
X15490Y-9990
X16460Y-10020
X17460Y-10040
X18000Y-9500
X17520Y-9010
X17697Y-8245
X16697
X16500Y-8000
X16470Y-8980
X15530Y-8970
X15697Y-8245
X14440Y-7816
X18500Y-8000
X19050Y-8030
X19698Y-8245
X19470Y-10260
X19050Y-9930
X18698Y-11245
Y-12215
X10500Y-12000
Y-11000
X9697Y-11245
X9690Y-10340
X10430Y-9760
X11000Y-9500
X9140Y-9150
X8340Y-9190
X7220
X7430Y-9730
X7020Y-10040
X6590Y-10160
X6697Y-11245
X6950Y-11620
X6697Y-12215
X7697
X8698
X9697
X8120Y-11150
X5698Y-12215
X4697
Y-11245
X4330Y-10360
X5110Y-8050
X5870Y-8020
X5110Y-6790
X4260Y-6700
X7450Y-3490
X17697Y-3245
X20706Y-3130
X20846Y-3990
X21100Y-4300
X21640Y-4750
X22594Y-4790
X22380Y-5240
X22710Y-5810
X23040Y-5760
X23120Y-6450
X21970Y-6520
X20670Y-6660
X20370Y-5840
X20600Y-5500
X20230Y-5200
X19890Y-6080
X20485Y-8000
X20698Y-8245
X21100Y-8190
X21430Y-8180
X21530Y-7810
X22470Y-7890
X23480Y-7970
X24550Y-8110
X24697Y-7245
X24800Y-6700
X25698Y-6245
X27000Y-6150
X27698Y-6245
X28090Y-5990
X28698Y-6245
X28840Y-6710
X28850Y-7220
X29870Y-6700
X29697Y-6245
X30698
X31110Y-5910
X31440Y-6130
X31750Y-6020
X32020Y-5410
X32690Y-5450
X33000Y-5710
X33040Y-4900
X33000Y-4290
Y-3950
X33420Y-3810
X33640Y-4840
X34320Y-5280
X34697Y-6245
X34900Y-6600
X34090Y-6610
X33250Y-6620
X33100Y-7480
X32342Y-6943
X31910Y-7290
X31240Y-6890
X30880Y-7370
X30640Y-7190
X30150Y-8530
X30720Y-9300
X30698Y-10245
X29830Y-10200
X29390Y-9440
X28698Y-9245
X27880Y-9630
X27698Y-10245
Y-11245
X26697
Y-12215
X27590Y-12210
X28698Y-12215
X29697
X30698
Y-11245
X31697Y-12215
X32698Y-11665
Y-11245
X32320Y-10720
X32750Y-10160
X33440Y-10180
X33568Y-10985
X33698Y-11665
X34700Y-11610
X34646Y-9699
X34697Y-9245
X34371Y-8581
X35040Y-8528
X35375
X33800Y-9350
X31930Y-9320
X32350Y-8530
X32430Y-4740
X32210Y-4100
X31060Y-3940
X31050Y-4300
X30698Y-4245
X30580Y-3540
X30030Y-3520
X29900Y-4820
X30890Y-4930
X31210Y-4900
X31380Y-3400
X28210Y-3530
X28073Y-4257
X27770Y-4250
X27420Y-4590
X26950Y-4610
X27770Y-5160
X28527Y-4273
X26460Y-5560
X24780Y-5140
X24190Y-5630
X23540Y-5320
X23560Y-5020
X23900Y-4400
X24170Y-4660
X25400Y-3300
X22698Y-3245
X21697
X22100Y-4100
X22000Y-9500
X21000
X20000
X20510Y-8630
X20500Y-10500
X21440
X22480
X23480
X24510
X25698Y-10245
Y-11245
Y-12215
X25000Y-9500
X24000
X23000
X27250Y-7680
X35310Y-5800
X35170Y-4050
X35580Y-3800
X35890Y-4480
X36240Y-4400
X36550Y-4380
X36570Y-4810
X36890Y-4690
X36600Y-3910
X37410Y-3200
X37920Y-3470
X37900Y-6700
X38900Y-6650
X39200Y-6550
Y-5800
X39697Y-5245
X41120Y-4940
X41340Y-4730
X41460Y-5250
X41698Y-6245
X41800Y-7030
X42698Y-7245
Y-9245
X43698
X44697
X45697
Y-10245
Y-11245
Y-12215
X47698
X48608Y-12195
X48698Y-11245
X49697
Y-12215
X50697Y-11245
Y-10245
Y-9245
X50200Y-9580
X49490Y-9250
X48698Y-9245
X47698
X46698
X45697Y-8245
Y-7245
X46698
X47698
X48430Y-7050
X48410Y-5800
X47698Y-5245
X47370Y-5360
X46698Y-5245
X45697
X44697
X44200Y-5500
X43690Y-5720
X43020Y-5040
X42698Y-3245
X41698
X44697
X45697
X46698
X48470Y-3420
X48350Y-3890
X47698Y-4245
X48803Y-4671
X49384
X49920Y-5010
X49670Y-5750
X49697Y-6245
X49660Y-6960
X49697Y-8245
X50697
Y-7245
Y-6245
Y-5245
Y-4245
Y-3245
X49972Y-3130
X49870Y-3950
X48320Y-8530
X48698Y-10245
X49530Y-10230
X44697Y-7245
X45697Y-6245
X41698Y-8245
Y-9245
X40697
X40030Y-8560
X38698Y-8245
X37698
X37190Y-7740
X37450Y-7350
X39190Y-7330
X39330Y-10170
X38698Y-11245
Y-12215
X37850Y-11660
X37510
X37170
X36500Y-11650
X35700Y-11610
X35710Y-9520
X36130
X36170Y-8870
X36466Y-8670
X36140Y-5260
X41698Y-10245
Y-11245
Y-12215
X52400Y5750
Y6750
X51698Y6755
X52400Y7750
Y8750
Y9750
X51670Y9890
X51698Y10755
X52400Y10750
Y11750
X51698Y11755
X50697
Y9905
X49697
Y10755
X48698
X47698
Y11755
X46698
Y10755
X45697
X44697
X44939Y11499
X44697Y11755
X43698
X42698
Y10755
X42130Y10630
X41698Y10755
X41560Y11550
X41250Y10200
X41590Y9207
X42060Y8600
X41850Y8380
X41770Y8090
X42070Y8100
X43150Y8050
X42900Y8420
X42579Y8750
X42600Y9350
X42698Y9755
X42920Y10120
X43860Y9760
X44697Y9755
X44858Y9260
X45410Y8930
X45697Y9755
X46698
X47610Y9660
X47348Y9257
X48400Y8950
X48698Y8755
X48550Y9800
X48698Y11755
X45697
X43710Y10730
X43950Y8350
X46000Y8330
X47368Y7640
X47698Y5755
X48698
Y4755
X48986Y4279
X48698Y3755
X48253Y3363
X47879Y3383
X47879Y3737
X47500Y4114
X47544Y3048
X47940Y3027
X47909Y2271
X48165Y1513
X48150Y840
X47830Y1070
X48698Y755
X49697
X50697
Y-245
Y-1245
Y-2245
X49697
Y-1245
Y-245
X48698Y-1245
X47760Y-1440
Y-1020
Y-600
Y-180
X47540Y-390
Y-810
Y-1230
Y-1650
X47760Y-1860
X47960Y-2290
X48710Y-2480
X47160Y-2460
X46240Y-2540
Y-2960
X46020Y-2750
Y-2330
X46240Y-2120
X46340Y-860
X46060Y-740
X45840Y-370
X45750Y20
X45470Y-210
X44510Y140
X43381Y-249
X42790
X43090Y360
X42300Y630
X42394Y987
X42334Y2107
X42781Y2704
X42554Y3447
X42427Y3777
X43165Y4121
X44149Y3929
X44631Y3767
X44631Y3019
X45104
X45576
X46049
Y2546
X45576
X45104
X44631
Y2074
X45104
X45576
X46049
Y1601
X45576
X45104
X44631
X44600Y5020
X44210Y5660
X43360Y5620
X41170Y5480
X41050Y5200
Y4900
X41170Y4620
X40900Y4230
X41530Y4120
Y2830
Y2440
X40900Y3090
X39430Y2840
X39110Y2850
X39310Y2560
Y2140
Y1720
Y1300
Y880
X39530Y1090
Y1510
Y1930
Y2350
X40190Y1470
X40270Y80
X39760Y-420
X39690Y-790
X39410Y-670
X39920Y-1150
X40370
X40660Y-1070
X40550Y-790
X40770Y-570
X40900Y600
X41950Y240
X38100Y650
X38310Y1930
X38210Y2970
X37180Y3010
X36697Y2755
X36060Y3000
X36050Y1960
X36030Y650
X35870Y10
X35790Y-290
X35670Y-950
X35970
X36260Y-860
X36560
X36510Y40
X37130Y50
X37870Y-770
X37340Y-1790
X37580Y-2950
X37860Y-2820
X36190Y-3020
X36140Y-2290
X37640Y3960
X37890Y5000
X38490
X39310Y5770
X39250Y6120
X40030Y6403
X40310Y6283
X40590Y6163
X40750Y5903
Y5603
X39460Y3990
X37770Y6000
X36930Y6020
X36570Y6000
X36010Y5980
X36697Y9755
X37698
X37270Y9200
X38340Y8990
X38640Y8940
X38698Y9755
Y10755
Y11755
X37698
Y10755
X36300Y10930
X35698Y10755
Y11755
X39697
Y10755
X39620Y9300
X40600Y9100
X40970Y8500
X40080Y8060
X39330Y8030
X46100Y6100
X46698Y5755
X46929Y5227
X45708Y5214
X45744Y4573
X46098Y4564
X45744Y3944
X46846Y3068
X48906Y2989
X48906Y2231
X50166Y2271
X50156Y2999
X50610Y3410
X50697Y3755
X50900Y4500
X49697Y4755
Y3755
Y6755
X47130Y440
Y70
X35360Y-950
X34880Y-1060
Y-1480
Y-1900
X34660Y-1690
Y-1270
X33030Y-1390
X32250Y-1600
X31940Y-1420
X31600Y-1540
X30698Y-1245
X31030Y-720
X32030Y80
X32490Y60
X32830Y104
X33210Y20
X33650Y80
X33090Y1840
X33020Y3270
X32520
X31490Y3250
X31330Y4290
X30679Y4331
X30910Y5220
X31200Y5660
X31697Y5755
X31970Y5080
X32910Y4980
X32698Y5755
X30698
X30040Y6100
X28910
X28698Y5755
X27790Y5200
X27698Y4755
X26697
X25698
X25480Y5280
X24410Y5010
X24020Y5060
X23920Y4710
X24140Y3920
X24450Y4010
X24020Y2740
X24250Y2000
X24800Y1970
Y970
X24270Y990
X23698Y755
Y1755
X22990Y2010
X22330Y1740
X22407Y2680
X22830Y3400
X22800Y3710
X22570Y3970
X22410Y4820
X22276Y5122
X22244Y5636
X22540Y5880
X22030Y6144
X20880Y6120
X20450Y6110
X19910Y6290
X20060Y5180
X20740Y4910
X20640Y4580
X21553Y4510
X21570Y4110
X21600Y3700
X21970Y4450
X22850Y5100
X23410Y5810
X24830Y6500
X25290Y6440
X25630Y6480
X27250Y6060
X27698Y3755
X28340Y3410
X28750Y4000
X28610Y2350
X28400Y2130
X28190Y1910
X27980Y1690
X27740Y1130
X26662Y1002
X26110Y950
X26677Y2134
X27698Y2755
X29050Y1620
X29490
X31000Y1740
X30170Y3300
X30000Y280
X29100Y60
X29080Y-820
X29697Y-1245
Y-2245
X28950Y-2310
X28200Y-2200
X28040Y-1870
X27930Y-1220
X27020Y-1450
X26697Y-2245
X25698
X25767Y-1897
X25160Y-1600
X25990Y-1000
X24250Y-1050
X23698Y-1245
Y-245
X24677Y-96
X26990Y-106
X27890Y-10
X30698Y-2245
X24516Y-2596
X24304Y-2384
X23890Y-2060
X23040Y-2786
X22600Y-2600
X22590Y-1610
X21770Y-1690
X21697Y-1245
X21770Y-911
X21256Y-1227
X20696Y-890
X20506Y130
X20420Y850
X21300Y1120
X22030Y810
X22240Y40
X21530Y170
X20840Y1700
X20300Y2050
X19900Y2100
X21056Y-2480
X21467Y-2496
X24728Y-2808
X24941Y-3021
X24500Y8500
X23500
X22500
X21500
X20500
X21000Y9500
X22000
X23000
X24000
X25000
X25698Y9755
Y8755
Y10755
Y11755
X24500Y10500
X23500
X22500
X21500
X20500
X20000Y9500
X27000Y9500
X27500Y9250
X28000Y9500
X29000
X30000
X31000
X31500Y9250
X32000Y9500
X33000
X34000
X34400Y8880
X34850Y8320
X34250Y7610
X32520Y8704
X32500Y10500
X31500
X30500
X29500
X28500
X27500
X28500Y8750
X29500
X30500
X34500Y10250
X34697Y10755
Y11755
X34860Y1370
X18860Y1290
X18896Y2100
X19416Y2110
X19110Y3160
X19000Y5100
X19400Y5500
X18400
X17400Y5500
X16400
X15400
X14400
X13400
X12400Y5500
X11400Y5500
X10400
X9400
X8400
X7900Y6000
X7400Y5500
X7010Y5310
X7880Y4660
X7840Y3790
X7180Y3390
X7340Y2700
X7750Y2670
X7140Y2130
X6310Y2050
X4500Y2000
X4300Y1004
X4926Y-705
X5296Y-830
X5060Y-1510
X4650
X4216Y-1420
X4670Y-2840
X5020
X6000Y-1050
X6200Y-500
X6697Y-245
X8240Y-320
X8350Y-750
X8460Y-1520
X9230Y-2330
X8850Y-3010
X7960Y-3040
X10200Y-3090
X10340Y-2190
X10480Y-1740
X9960Y-1750
X10315Y-805
X10650Y-850
X11140Y-763
X11390Y-1320
X11570Y-1750
X12190Y-2020
X12180Y-2980
X12910Y-3070
X12910Y-2290
X13296Y-2000
X13286Y-1635
X13346Y-1290
X12726Y-1570
X12460Y-1020
X12110Y-490
X12320Y-150
X11650Y-100
X12876Y-390
X13066Y1890
X13346Y2440
X13698Y2755
X14698
X14476Y2290
X14550Y1640
X14920Y1210
X15400Y1400
X16220Y1550
X16110Y1880
X15670Y2120
X16290Y2690
X16320Y2990
X17020Y2310
X17570Y2510
X17700Y2030
X18080Y2040
X17600Y1543
X17270
X17576Y970
X17606Y-30
X16970Y-30
X16650Y-470
X16680Y-840
X17000Y-770
X16400Y-280
X16210Y-40
X15790Y-470
X15176Y-854
Y-1193
X15520Y-1260
X16020Y-2590
X16100Y-2940
X15290Y-3120
X14970Y-2860
X14770Y-2610
X13336Y-2610
X17220Y-3000
X17911Y-2332
X18601Y-1772
X19708Y-1713
X19666Y-2790
X19000Y-3000
X19250Y-1000
X19690Y-500
X17900Y4600
X16890Y4780
X16920Y6300
X17880Y6420
X18080Y7200
X17250Y7210
X16700Y7180
X16800Y8700
X17500
X18000Y9500
X19000
X18500Y9000
Y10500
X19500
Y8500
X18860Y6320
X13890Y6300
X12900Y6310
X11910Y6340
X10900Y6290
X9900Y6300
X8900Y6210
Y8500
X7900
X7340Y8290
X6726Y8252
X6430Y8410
X5760Y8280
X7110Y7610
X7870Y7620
X7400Y9500
X8400
X9400
X10400Y9504
X11400Y9500
X12400
X13400
X14400
X15400
X16400
X15900Y8500
X14900
X13900
X12900
X11900
X10900
X9900
Y10500
X10900
X11900Y10500
X12900Y10500
X13900
X14900
X15900
X17210Y10260
X17210Y12080
X8900Y10500
X7900
X6910
X6697Y10755
X5698
X4900Y10580
X4570Y11040
X4697Y11755
X5698
X6697
X4460Y9790
X4420Y9300
X4860Y6400
X5730Y5920
X6400Y6230
X6660Y3860
X6160Y3840
X5680
X5250Y2970
X8940Y2260
X8990Y3640
X9770Y4310
X10210Y4280
X11000Y3740
X12100Y3420
X12220Y2670
X11900Y2100
X11440Y2180
X11940Y4280
X11920Y4650
X12910Y4660
X13900Y4680
X9606Y1053
Y719
X9800Y-360
X9360
X10220Y-270
X3910Y-710
X3700Y-1100
X3273Y-1027
X3270Y-1340
X2190Y-1870
X1960Y-656
Y254
X1700Y1820
X900Y1790
X570Y2930
X1000Y3520
X1698Y3755
X500Y4000
X698Y4755
Y5755
Y6755
X1698
X2697
Y5755
X1698
X2320Y4850
X3570Y3950
X3360Y2690
X3810Y2000
X3390Y1274
X3560Y8380
X3260Y8650
X3370Y8960
X3010Y9250
X2697Y8755
X2210Y8580
X1698Y8755
X698
Y7755
X1380Y9640
Y10140
Y10640
X1520Y11170
X1380Y11640
X1680
X2550Y12210
X3880Y12070
X3697Y11755
X3650Y11100
X2940Y10740
X3780Y9950
X350Y12220
T06
X3220Y-8010
Y-7010
X11000Y-11000
X12000
X13000
Y-12000
X12000
X11000
X14000
X15000
Y-11000
X14000
X16000
Y-12000
X17000
X18000
Y-11000
X17000
X12000Y-3500
X20000Y-11000
Y-12000
X21000
Y-11000
X22000
X23000
Y-12000
X22000
X24000
X25000
Y-11000
X24000
Y11000
X23000
Y12000
X24000
X25000
Y11000
X27000
Y12000
X28000
X29000
X30000
Y11000
X31000
X32000
Y12000
X33000
Y11000
X34000
Y12000
X31000
X29000Y11000
X28000
X22000
X21000
Y12000
X22000
X20000
Y11000
X19000
X18000
Y12000
X19000
X16400
Y11000
X15400
Y12000
X14400
X13400
Y11000
X14400
X12400
X11400
X10400
Y12000
X11400
X12400
X9400
X8400
X7400
Y11000
X8400
X9400
X12000Y-1500
Y-2500
T07
X26750Y-10250
X49250Y11500
T08
X23425Y3000
X23825Y6000
X23025
T09
X2880Y-4910
Y4429
Y7657
T10
X5500Y-9500
X26000Y-7500
X38000Y-9500
X35500Y9500
X50500Y5750
X26000Y3500
X6000Y9500
M30
