G04*
G04 #@! TF.GenerationSoftware,Altium Limited,Altium Designer,19.0.15 (446)*
G04*
G04 Layer_Color=16711935*
%FSLAX24Y24*%
%MOIN*%
G70*
G01*
G75*
%ADD148R,0.0462X0.0922*%
%ADD193C,0.0787*%
%ADD194C,0.0761*%
%ADD195O,0.0414X0.0690*%
%ADD196O,0.0690X0.0414*%
%ADD197C,0.0651*%
%ADD198R,0.0651X0.0651*%
%ADD199C,0.1320*%
%ADD200R,0.0651X0.0651*%
%ADD243R,0.1714X0.1320*%
%ADD244R,0.0934X0.0462*%
D148*
X18400Y4923D02*
D03*
Y6077D02*
D03*
X17400Y4923D02*
D03*
Y6077D02*
D03*
X13400Y4923D02*
D03*
Y6077D02*
D03*
X14400Y4923D02*
D03*
Y6077D02*
D03*
X8400Y4923D02*
D03*
Y6077D02*
D03*
X9400D02*
D03*
Y4923D02*
D03*
X10400Y6077D02*
D03*
Y4923D02*
D03*
X12400Y6077D02*
D03*
Y4923D02*
D03*
X11400Y6077D02*
D03*
Y4923D02*
D03*
X7400D02*
D03*
Y6077D02*
D03*
X16400D02*
D03*
Y4923D02*
D03*
X15400Y6077D02*
D03*
Y4923D02*
D03*
X19400Y6077D02*
D03*
Y4923D02*
D03*
X10400Y10077D02*
D03*
Y8923D02*
D03*
X9400Y10077D02*
D03*
Y8923D02*
D03*
X15400Y10077D02*
D03*
Y8923D02*
D03*
X14400D02*
D03*
Y10077D02*
D03*
X13400Y8923D02*
D03*
Y10077D02*
D03*
X11400Y8923D02*
D03*
Y10077D02*
D03*
X12400Y8923D02*
D03*
Y10077D02*
D03*
X16400D02*
D03*
Y8923D02*
D03*
X7400D02*
D03*
Y10077D02*
D03*
X8400Y8923D02*
D03*
Y10077D02*
D03*
X34000Y8923D02*
D03*
Y10077D02*
D03*
X30000D02*
D03*
Y8923D02*
D03*
X29000Y10077D02*
D03*
Y8923D02*
D03*
X31000Y10077D02*
D03*
Y8923D02*
D03*
X32000Y10077D02*
D03*
Y8923D02*
D03*
X33000D02*
D03*
Y10077D02*
D03*
X27000Y8923D02*
D03*
Y10077D02*
D03*
X28000Y8923D02*
D03*
Y10077D02*
D03*
X25000Y8923D02*
D03*
Y10077D02*
D03*
X21000D02*
D03*
Y8923D02*
D03*
X20000Y10077D02*
D03*
Y8923D02*
D03*
X22000Y10077D02*
D03*
Y8923D02*
D03*
X23000Y10077D02*
D03*
Y8923D02*
D03*
X24000D02*
D03*
Y10077D02*
D03*
X18000Y8923D02*
D03*
Y10077D02*
D03*
X19000Y8923D02*
D03*
Y10077D02*
D03*
X11000Y-8923D02*
D03*
Y-10077D02*
D03*
X15000D02*
D03*
Y-8923D02*
D03*
X16000Y-10077D02*
D03*
Y-8923D02*
D03*
X14000Y-10077D02*
D03*
Y-8923D02*
D03*
X13000Y-10077D02*
D03*
Y-8923D02*
D03*
X12000D02*
D03*
Y-10077D02*
D03*
X18000Y-8923D02*
D03*
Y-10077D02*
D03*
X17000Y-8923D02*
D03*
Y-10077D02*
D03*
X21000D02*
D03*
Y-8923D02*
D03*
X22000D02*
D03*
Y-10077D02*
D03*
X23000Y-8923D02*
D03*
Y-10077D02*
D03*
X25000Y-8923D02*
D03*
Y-10077D02*
D03*
X24000Y-8923D02*
D03*
Y-10077D02*
D03*
X20000D02*
D03*
Y-8923D02*
D03*
D193*
X50973Y11100D02*
D03*
X5411Y-11380D02*
D03*
D194*
X2880Y7657D02*
D03*
Y4429D02*
D03*
Y-4910D02*
D03*
D195*
X34027Y-11100D02*
D03*
X36626D02*
D03*
D196*
X1365Y1299D02*
D03*
Y-1299D02*
D03*
D197*
X36389Y-9350D02*
D03*
X8268Y-5020D02*
D03*
X8268Y-7382D02*
D03*
Y-6201D02*
D03*
X9449Y-6791D02*
D03*
Y-7972D02*
D03*
X37402Y8563D02*
D03*
X1575Y6201D02*
D03*
Y5020D02*
D03*
Y-5020D02*
D03*
Y7382D02*
D03*
Y-7283D02*
D03*
X9449Y1476D02*
D03*
Y295D02*
D03*
X9449Y-5610D02*
D03*
Y-886D02*
D03*
Y2657D02*
D03*
Y-2067D02*
D03*
Y3839D02*
D03*
Y-3248D02*
D03*
Y-4429D02*
D03*
X27953Y591D02*
D03*
Y-591D02*
D03*
X38386Y-5315D02*
D03*
X37205D02*
D03*
X34617Y-8169D02*
D03*
Y-6988D02*
D03*
X49684Y-4421D02*
D03*
X48503D02*
D03*
X27953Y4331D02*
D03*
X41535Y8563D02*
D03*
X12795Y-984D02*
D03*
X24016Y3051D02*
D03*
X24016Y4232D02*
D03*
Y5413D02*
D03*
X22835Y5413D02*
D03*
Y4232D02*
D03*
Y3051D02*
D03*
X28250Y-6500D02*
D03*
X4724Y-7283D02*
D03*
X5906D02*
D03*
X24606Y-1575D02*
D03*
X35798Y-8169D02*
D03*
X36979D02*
D03*
X26750Y-10250D02*
D03*
X49250Y11500D02*
D03*
X3220Y-8010D02*
D03*
X12000Y-2500D02*
D03*
Y-1500D02*
D03*
X7400Y12000D02*
D03*
Y11000D02*
D03*
X8400D02*
D03*
Y12000D02*
D03*
X10400D02*
D03*
Y11000D02*
D03*
X11400D02*
D03*
Y12000D02*
D03*
X13400Y11000D02*
D03*
Y12000D02*
D03*
X16400Y11000D02*
D03*
X15400Y12000D02*
D03*
Y11000D02*
D03*
X14400Y12000D02*
D03*
Y11000D02*
D03*
X12400Y12000D02*
D03*
Y11000D02*
D03*
X9400D02*
D03*
Y12000D02*
D03*
X27000D02*
D03*
Y11000D02*
D03*
X30000D02*
D03*
Y12000D02*
D03*
X32000Y11000D02*
D03*
Y12000D02*
D03*
X33000Y11000D02*
D03*
Y12000D02*
D03*
X34000Y11000D02*
D03*
X31000Y12000D02*
D03*
Y11000D02*
D03*
X29000Y12000D02*
D03*
Y11000D02*
D03*
X28000D02*
D03*
Y12000D02*
D03*
X18000D02*
D03*
Y11000D02*
D03*
X21000D02*
D03*
Y12000D02*
D03*
X23000Y11000D02*
D03*
Y12000D02*
D03*
X24000Y11000D02*
D03*
Y12000D02*
D03*
X25000Y11000D02*
D03*
X22000Y12000D02*
D03*
Y11000D02*
D03*
X20000Y12000D02*
D03*
Y11000D02*
D03*
X19000D02*
D03*
Y12000D02*
D03*
X18000Y-12000D02*
D03*
Y-11000D02*
D03*
X15000D02*
D03*
Y-12000D02*
D03*
X13000Y-11000D02*
D03*
Y-12000D02*
D03*
X12000Y-11000D02*
D03*
Y-12000D02*
D03*
X11000Y-11000D02*
D03*
X14000Y-12000D02*
D03*
Y-11000D02*
D03*
X16000Y-12000D02*
D03*
Y-11000D02*
D03*
X17000D02*
D03*
Y-12000D02*
D03*
X25000Y-11000D02*
D03*
Y-12000D02*
D03*
X23000Y-11000D02*
D03*
Y-12000D02*
D03*
X20000Y-11000D02*
D03*
X21000Y-12000D02*
D03*
Y-11000D02*
D03*
X22000Y-12000D02*
D03*
Y-11000D02*
D03*
X24000Y-12000D02*
D03*
Y-11000D02*
D03*
D198*
X3220Y-7010D02*
D03*
X12000Y-3500D02*
D03*
D199*
X50500Y5750D02*
D03*
X26000Y-7500D02*
D03*
Y3500D02*
D03*
X5500Y-9500D02*
D03*
X6000Y9500D02*
D03*
X38000Y-9500D02*
D03*
X35500Y9500D02*
D03*
D200*
X16400Y12000D02*
D03*
X34000D02*
D03*
X25000D02*
D03*
X11000Y-12000D02*
D03*
X20000D02*
D03*
D243*
X4500Y-5774D02*
D03*
Y5762D02*
D03*
D244*
X24438Y-500D02*
D03*
X26662D02*
D03*
X24438Y500D02*
D03*
Y1500D02*
D03*
X26662Y500D02*
D03*
Y1500D02*
D03*
M02*
