G04*
G04 #@! TF.GenerationSoftware,Altium Limited,Altium Designer,19.0.15 (446)*
G04*
G04 Layer_Color=16711935*
%FSLAX24Y24*%
%MOIN*%
G70*
G01*
G75*
%ADD11C,0.0100*%
D11*
X0Y3004D02*
G03*
X250Y2754I250J0D01*
G01*
X600Y2504D02*
G03*
X350Y2754I-250J0D01*
G01*
Y-2754D02*
G03*
X600Y-2504I0J250D01*
G01*
X250Y-2754D02*
G03*
X0Y-3004I0J-250D01*
G01*
X38081Y-12250D02*
G03*
X38331Y-12500I250J0D01*
G01*
X38081Y-12150D02*
G03*
X37831Y-11900I-250J0D01*
G01*
X32822D02*
G03*
X32572Y-12150I0J-250D01*
G01*
X32322Y-12500D02*
G03*
X32572Y-12250I0J250D01*
G01*
X400Y12500D02*
G03*
X0Y12100I0J-400D01*
G01*
Y-12100D02*
G03*
X400Y-12500I400J0D01*
G01*
X52350Y-12500D02*
G03*
X52750Y-12100I0J400D01*
G01*
Y12100D02*
G03*
X52350Y12500I-400J0D01*
G01*
X0Y3004D02*
Y12100D01*
Y-12100D02*
Y-3004D01*
X600Y-2504D02*
Y2504D01*
X250Y2754D02*
X350D01*
X250Y-2754D02*
X350D01*
X38081Y-12250D02*
Y-12150D01*
X32572Y-12250D02*
Y-12150D01*
X38331Y-12500D02*
X52350Y-12500D01*
X400Y-12500D02*
X32322Y-12500D01*
X32822Y-11900D02*
X37831D01*
X52750Y5400D02*
Y12100D01*
Y-12100D02*
Y-9500D01*
X53750Y-8500D01*
Y4400D01*
X52750Y5400D02*
X53750Y4400D01*
X400Y12500D02*
X52350D01*
M02*
