G04*
G04 #@! TF.GenerationSoftware,Altium Limited,Altium Designer,19.0.15 (446)*
G04*
G04 Layer_Color=8421504*
%FSLAX24Y24*%
%MOIN*%
G70*
G01*
G75*
G04:AMPARAMS|DCode=33|XSize=37mil|YSize=37mil|CornerRadius=2.8mil|HoleSize=0mil|Usage=FLASHONLY|Rotation=180.000|XOffset=0mil|YOffset=0mil|HoleType=Round|Shape=RoundedRectangle|*
%AMROUNDEDRECTD33*
21,1,0.0370,0.0315,0,0,180.0*
21,1,0.0315,0.0370,0,0,180.0*
1,1,0.0056,-0.0157,0.0157*
1,1,0.0056,0.0157,0.0157*
1,1,0.0056,0.0157,-0.0157*
1,1,0.0056,-0.0157,-0.0157*
%
%ADD33ROUNDEDRECTD33*%
%ADD34O,0.0591X0.0787*%
%ADD35O,0.0787X0.0591*%
%ADD36R,0.0138X0.0118*%
%ADD37R,0.0138X0.0098*%
%ADD38R,0.0551X0.0197*%
%ADD39R,0.0315X0.0118*%
%ADD40R,0.0197X0.0148*%
%ADD41R,0.0138X0.0138*%
%ADD42R,0.0138X0.0098*%
%ADD43R,0.0315X0.0295*%
%ADD44R,0.0236X0.0197*%
%ADD45R,0.0256X0.0197*%
%ADD46R,0.0295X0.0315*%
%ADD47R,0.0197X0.0236*%
%ADD48R,0.0374X0.0335*%
%ADD49R,0.0118X0.0106*%
%ADD50O,0.0071X0.0240*%
%ADD51O,0.0240X0.0071*%
%ADD52C,0.0093*%
%ADD53O,0.0551X0.0157*%
%ADD54C,0.0118*%
%ADD55R,0.0472X0.0433*%
%ADD56R,0.0394X0.0709*%
%ADD57R,0.0138X0.0354*%
%ADD58R,0.0394X0.0236*%
%ADD59R,0.0236X0.0394*%
%ADD60R,0.0354X0.0138*%
%ADD61R,0.0138X0.0059*%
%ADD62R,0.0108X0.0118*%
%ADD63R,0.0138X0.0098*%
%ADD64R,0.0138X0.0059*%
%ADD65O,0.0118X0.0650*%
%ADD66O,0.0650X0.0118*%
%ADD67R,0.0394X0.0630*%
%ADD68R,0.0472X0.0630*%
%ADD69R,0.0472X0.0787*%
%ADD70R,0.1083X0.0551*%
%ADD71R,0.1252X0.0500*%
%ADD72R,0.0402X0.0862*%
%ADD73R,0.1500X0.0500*%
%ADD74R,0.0256X0.0335*%
%ADD75R,0.0300X0.0320*%
%ADD76R,0.0709X0.0472*%
%ADD77R,0.0610X0.0236*%
%ADD78R,0.0118X0.0315*%
%ADD79R,0.0236X0.1024*%
%ADD80R,0.0630X0.0551*%
%ADD81R,0.0748X0.0610*%
%ADD82R,0.0157X0.0531*%
%ADD83R,0.0551X0.0630*%
%ADD84R,0.0610X0.0748*%
%ADD85R,0.0531X0.0157*%
%ADD86R,0.0315X0.0295*%
%ADD87R,0.0228X0.0197*%
%ADD88R,0.0217X0.0236*%
%ADD89R,0.0236X0.0217*%
%ADD90R,0.0280X0.0362*%
%ADD91R,0.0165X0.0177*%
%ADD92R,0.0098X0.0157*%
%ADD93R,0.0276X0.0157*%
%ADD94R,0.0157X0.0098*%
%ADD95R,0.0157X0.0276*%
%ADD96R,0.0362X0.0280*%
%ADD97R,0.0177X0.0165*%
%ADD98R,0.0551X0.0236*%
%ADD99R,0.0669X0.0236*%
%ADD100R,0.1063X0.0315*%
%ADD101R,0.0197X0.0256*%
%ADD102R,0.0500X0.0300*%
%ADD103R,0.1000X0.1051*%
%ADD104R,0.0098X0.0142*%
%ADD105R,0.0394X0.0335*%
%ADD106R,0.0236X0.0335*%
%ADD107R,0.0335X0.0394*%
%ADD108R,0.0335X0.0236*%
%ADD109R,0.0106X0.0118*%
%ADD110R,0.0433X0.0551*%
%ADD111R,0.0299X0.0945*%
%ADD112R,0.0945X0.0299*%
%ADD113C,0.0394*%
G36*
X11334Y-3982D02*
Y-4218D01*
X11078Y-4474D01*
X10291D01*
X10035Y-4218D01*
Y-3982D01*
X10291Y-3726D01*
X11078D01*
X11334Y-3982D01*
D02*
G37*
D33*
X46013Y2983D02*
D03*
X45564D02*
D03*
X45116D02*
D03*
X44667D02*
D03*
X46013Y2534D02*
D03*
X45564D02*
D03*
X45116D02*
D03*
X44667D02*
D03*
X46013Y2086D02*
D03*
X45564D02*
D03*
X45116D02*
D03*
X44667D02*
D03*
Y1637D02*
D03*
X45116D02*
D03*
X45564D02*
D03*
X46013D02*
D03*
D34*
X36626Y-11100D02*
D03*
X34027D02*
D03*
D35*
X1365Y-1299D02*
D03*
Y1299D02*
D03*
D36*
X4360Y-2613D02*
D03*
Y-2357D02*
D03*
X5360D02*
D03*
Y-2613D02*
D03*
D37*
X5360Y-2101D02*
D03*
Y-1904D02*
D03*
Y-1707D02*
D03*
X4360D02*
D03*
Y-1904D02*
D03*
Y-2101D02*
D03*
D38*
X4860Y-2475D02*
D03*
Y-1845D02*
D03*
D39*
X8160Y-4363D02*
D03*
X8160Y-4717D02*
D03*
D40*
X8160Y-4338D02*
D03*
Y-4742D02*
D03*
D41*
X7776Y-4323D02*
D03*
D42*
Y-4540D02*
D03*
Y-4737D02*
D03*
X8544D02*
D03*
Y-4540D02*
D03*
Y-4343D02*
D03*
D43*
X42790Y627D02*
D03*
Y95D02*
D03*
X43381Y627D02*
D03*
Y95D02*
D03*
X43667Y4269D02*
D03*
Y4800D02*
D03*
X19530Y3194D02*
D03*
Y3726D02*
D03*
X3500Y-2776D02*
D03*
Y-2244D02*
D03*
X3970Y-2776D02*
D03*
Y-2244D02*
D03*
X36466Y-8325D02*
D03*
Y-7794D02*
D03*
X44307Y-190D02*
D03*
Y341D02*
D03*
X43844Y-190D02*
D03*
Y341D02*
D03*
D44*
X44607Y4210D02*
D03*
X44213D02*
D03*
X47860Y1523D02*
D03*
X47466D02*
D03*
X47545Y3737D02*
D03*
X47151D02*
D03*
X45704Y4210D02*
D03*
X46098D02*
D03*
X47151Y3383D02*
D03*
X47545D02*
D03*
X49697Y-4363D02*
D03*
X49303D02*
D03*
X48877D02*
D03*
X48483D02*
D03*
X42637Y2087D02*
D03*
X43031D02*
D03*
X43238Y3427D02*
D03*
X42844D02*
D03*
D45*
X44041Y5214D02*
D03*
X43667D02*
D03*
X47879Y2612D02*
D03*
X47505Y2612D02*
D03*
X49007Y2612D02*
D03*
X48633D02*
D03*
X2612Y2356D02*
D03*
X2986D02*
D03*
D46*
X44681Y4619D02*
D03*
X44149D02*
D03*
X33434Y-8800D02*
D03*
X33966D02*
D03*
X6886Y-5430D02*
D03*
X6354D02*
D03*
X5226Y-3220D02*
D03*
X4694D02*
D03*
X4260Y-1060D02*
D03*
X4792D02*
D03*
X20284Y1310D02*
D03*
X20816D02*
D03*
X19592Y1730D02*
D03*
X19060D02*
D03*
X42791Y3817D02*
D03*
X43322D02*
D03*
D47*
X46514Y4867D02*
D03*
Y4474D02*
D03*
X47914Y4474D02*
D03*
Y4867D02*
D03*
X47132Y3009D02*
D03*
Y2615D02*
D03*
X48256Y3027D02*
D03*
Y2633D02*
D03*
X50937Y2738D02*
D03*
Y3131D02*
D03*
X41884Y2874D02*
D03*
Y2480D02*
D03*
X46531Y489D02*
D03*
Y95D02*
D03*
X45468Y489D02*
D03*
Y95D02*
D03*
D48*
X47500Y4444D02*
D03*
Y4897D02*
D03*
X46929D02*
D03*
Y4444D02*
D03*
D49*
X18400Y2811D02*
D03*
Y3035D02*
D03*
X2520Y-2822D02*
D03*
Y-2598D02*
D03*
X32765Y-9363D02*
D03*
Y-9587D02*
D03*
X37443Y-11067D02*
D03*
Y-11291D02*
D03*
X36076Y-8072D02*
D03*
Y-7847D02*
D03*
X33463Y-9722D02*
D03*
Y-9497D02*
D03*
X40710Y2802D02*
D03*
Y2578D02*
D03*
X41070Y2578D02*
D03*
Y2802D02*
D03*
X23460Y-6128D02*
D03*
Y-6352D02*
D03*
X21000Y-432D02*
D03*
Y-208D02*
D03*
Y-1202D02*
D03*
Y-978D02*
D03*
Y-3442D02*
D03*
Y-3218D02*
D03*
X18056Y1328D02*
D03*
Y1552D02*
D03*
X15386Y1828D02*
D03*
Y2052D02*
D03*
X13566Y2082D02*
D03*
Y1858D02*
D03*
X13596Y-928D02*
D03*
Y-1152D02*
D03*
X12796Y-998D02*
D03*
Y-1222D02*
D03*
X13596Y-1508D02*
D03*
Y-1732D02*
D03*
X38010Y10978D02*
D03*
Y11202D02*
D03*
X20460Y5632D02*
D03*
Y5408D02*
D03*
X20683Y5632D02*
D03*
Y5408D02*
D03*
X40710Y2312D02*
D03*
Y2088D02*
D03*
X41070Y2312D02*
D03*
Y2088D02*
D03*
X14500Y-6578D02*
D03*
Y-6802D02*
D03*
X4630Y-7868D02*
D03*
Y-8092D02*
D03*
X12830Y2752D02*
D03*
Y2528D02*
D03*
X3939Y-7118D02*
D03*
Y-7342D02*
D03*
X4149D02*
D03*
Y-7118D02*
D03*
X3090Y-2502D02*
D03*
Y-2278D02*
D03*
X2800Y-2832D02*
D03*
Y-2608D02*
D03*
X25400Y-1742D02*
D03*
Y-1518D02*
D03*
X21000Y338D02*
D03*
Y562D02*
D03*
X37173Y-11067D02*
D03*
Y-11291D02*
D03*
X12660Y769D02*
D03*
Y545D02*
D03*
X12660Y1007D02*
D03*
Y1232D02*
D03*
X6740Y2842D02*
D03*
Y2618D02*
D03*
X4050Y9502D02*
D03*
Y9278D02*
D03*
X37400Y10978D02*
D03*
Y11202D02*
D03*
X13076Y-998D02*
D03*
Y-1222D02*
D03*
X3410Y10398D02*
D03*
Y10622D02*
D03*
X13133Y-5682D02*
D03*
Y-5458D02*
D03*
X12899Y-5682D02*
D03*
Y-5458D02*
D03*
X31020Y4812D02*
D03*
Y4588D02*
D03*
X7650Y-6822D02*
D03*
Y-6598D02*
D03*
D50*
X36436Y-3682D02*
D03*
X36279D02*
D03*
X36121D02*
D03*
X35964D02*
D03*
Y-2718D02*
D03*
X36121D02*
D03*
X36279D02*
D03*
X36436D02*
D03*
X32024Y-4415D02*
D03*
X32181D02*
D03*
X32339D02*
D03*
X32496D02*
D03*
Y-5065D02*
D03*
X32339D02*
D03*
X32181D02*
D03*
X32024D02*
D03*
X23776Y-5672D02*
D03*
X23619D02*
D03*
X23461D02*
D03*
X23304D02*
D03*
Y-4708D02*
D03*
X23461D02*
D03*
X23619D02*
D03*
X23776D02*
D03*
X28874Y-4415D02*
D03*
X29031D02*
D03*
X29189D02*
D03*
X29346D02*
D03*
Y-5065D02*
D03*
X29189D02*
D03*
X29031D02*
D03*
X28874D02*
D03*
D51*
X35875Y-3436D02*
D03*
Y-3279D02*
D03*
Y-3121D02*
D03*
Y-2964D02*
D03*
X36525D02*
D03*
Y-3121D02*
D03*
Y-3279D02*
D03*
Y-3436D02*
D03*
X31778Y-4976D02*
D03*
Y-4819D02*
D03*
Y-4661D02*
D03*
Y-4504D02*
D03*
X32742D02*
D03*
Y-4661D02*
D03*
Y-4819D02*
D03*
Y-4976D02*
D03*
X23215Y-5426D02*
D03*
Y-5269D02*
D03*
Y-5111D02*
D03*
Y-4954D02*
D03*
X23865D02*
D03*
Y-5111D02*
D03*
Y-5269D02*
D03*
Y-5426D02*
D03*
X28628Y-4976D02*
D03*
Y-4819D02*
D03*
Y-4661D02*
D03*
Y-4504D02*
D03*
X29592D02*
D03*
Y-4661D02*
D03*
Y-4819D02*
D03*
Y-4976D02*
D03*
D52*
X10899Y-471D02*
D03*
Y-629D02*
D03*
X10741Y-471D02*
D03*
Y-629D02*
D03*
X11937Y-5813D02*
D03*
X11779D02*
D03*
X11937Y-5655D02*
D03*
X11779D02*
D03*
X9259Y-5539D02*
D03*
X9101D02*
D03*
X9259Y-5381D02*
D03*
X9101D02*
D03*
X10149Y-5539D02*
D03*
X9991D02*
D03*
X10149Y-5381D02*
D03*
X9991D02*
D03*
X7991Y-7241D02*
D03*
X8149D02*
D03*
X7991Y-7399D02*
D03*
X8149D02*
D03*
X7991Y-6686D02*
D03*
X8149D02*
D03*
X7991Y-6844D02*
D03*
X8149D02*
D03*
X7991Y-6131D02*
D03*
X8149D02*
D03*
X7991Y-6289D02*
D03*
X8149D02*
D03*
X42497Y8160D02*
D03*
X42340D02*
D03*
X42497Y8317D02*
D03*
X42340D02*
D03*
D53*
X10981Y-2734D02*
D03*
Y-2478D02*
D03*
Y-2222D02*
D03*
Y-1966D02*
D03*
X8659Y-2734D02*
D03*
Y-2478D02*
D03*
Y-2222D02*
D03*
Y-1966D02*
D03*
D54*
X46226Y3590D02*
D03*
X44848D02*
D03*
X45045D02*
D03*
X45242D02*
D03*
X45438D02*
D03*
X45635D02*
D03*
X45832D02*
D03*
X46029D02*
D03*
X46423D02*
D03*
X44060Y3393D02*
D03*
X44356D02*
D03*
X44553D02*
D03*
X44749D02*
D03*
X44946D02*
D03*
X45143D02*
D03*
X45340D02*
D03*
X45537D02*
D03*
X45734D02*
D03*
X45931D02*
D03*
X46620D02*
D03*
X46423Y3097D02*
D03*
X44060Y3196D02*
D03*
X44257Y3097D02*
D03*
X46620Y2999D02*
D03*
X44257Y2901D02*
D03*
X46423D02*
D03*
X44060Y2802D02*
D03*
X44257Y2704D02*
D03*
X46423D02*
D03*
X44060Y2605D02*
D03*
X46620D02*
D03*
X44257Y2507D02*
D03*
X44060Y2408D02*
D03*
X46620D02*
D03*
X44257Y2310D02*
D03*
X44060Y2212D02*
D03*
X46620D02*
D03*
X44257Y2113D02*
D03*
X46423D02*
D03*
X44060Y2015D02*
D03*
X46620D02*
D03*
X44257Y1916D02*
D03*
X46423D02*
D03*
X44060Y1818D02*
D03*
X46620D02*
D03*
X46423Y1719D02*
D03*
X44060Y1621D02*
D03*
X46620D02*
D03*
X44257Y1523D02*
D03*
X46423D02*
D03*
X46620Y1424D02*
D03*
X44257Y1326D02*
D03*
X44553Y1227D02*
D03*
X44946D02*
D03*
X45143D02*
D03*
X45340D02*
D03*
X45537D02*
D03*
X45734D02*
D03*
X45931D02*
D03*
X46127D02*
D03*
X46620D02*
D03*
X44257Y1030D02*
D03*
X44454D02*
D03*
X44651D02*
D03*
X44848D02*
D03*
X45045D02*
D03*
X45242D02*
D03*
X45438D02*
D03*
X45635D02*
D03*
X45832D02*
D03*
X46029D02*
D03*
X46226D02*
D03*
X46423D02*
D03*
D55*
X14946Y1609D02*
D03*
Y2311D02*
D03*
X14006Y1609D02*
D03*
Y2311D02*
D03*
D56*
X42292Y2667D02*
D03*
X43276D02*
D03*
D57*
X9394Y-8026D02*
D03*
X9906D02*
D03*
Y-8774D02*
D03*
X9650D02*
D03*
X9394D02*
D03*
X7666Y-8774D02*
D03*
X7410D02*
D03*
X7154D02*
D03*
Y-8026D02*
D03*
X7410D02*
D03*
X7666D02*
D03*
X8786Y-8774D02*
D03*
X8530D02*
D03*
X8274D02*
D03*
Y-8026D02*
D03*
X8530D02*
D03*
X8786D02*
D03*
D58*
X20099Y3736D02*
D03*
Y4484D02*
D03*
X21161D02*
D03*
Y4110D02*
D03*
Y3736D02*
D03*
D59*
X33564Y-8091D02*
D03*
X32816D02*
D03*
Y-7028D02*
D03*
X33190D02*
D03*
X33564D02*
D03*
D60*
X10026Y-7006D02*
D03*
Y-6494D02*
D03*
X10774D02*
D03*
Y-6750D02*
D03*
Y-7006D02*
D03*
D61*
X4360Y-1707D02*
D03*
Y-1904D02*
D03*
Y-2101D02*
D03*
X5360D02*
D03*
Y-1904D02*
D03*
Y-1707D02*
D03*
D62*
X4360Y-2357D02*
D03*
Y-2613D02*
D03*
X5360D02*
D03*
Y-2357D02*
D03*
D63*
X7776Y-4323D02*
D03*
D64*
Y-4540D02*
D03*
Y-4737D02*
D03*
X8544D02*
D03*
Y-4540D02*
D03*
Y-4343D02*
D03*
D65*
X14864Y-5482D02*
D03*
X15061D02*
D03*
X15258D02*
D03*
X15454D02*
D03*
X15651D02*
D03*
X15848D02*
D03*
X16045D02*
D03*
X16242D02*
D03*
X16439D02*
D03*
X16636D02*
D03*
X16832D02*
D03*
X17029D02*
D03*
X17226D02*
D03*
X17423D02*
D03*
X17620D02*
D03*
X17817D02*
D03*
X18013D02*
D03*
X18210D02*
D03*
X18407D02*
D03*
X18604D02*
D03*
X18801D02*
D03*
X18998D02*
D03*
X19195D02*
D03*
X19391D02*
D03*
X19588D02*
D03*
Y482D02*
D03*
X19391D02*
D03*
X19195D02*
D03*
X18998D02*
D03*
X18801D02*
D03*
X18604D02*
D03*
X18407D02*
D03*
X18210D02*
D03*
X18013D02*
D03*
X17817D02*
D03*
X17620D02*
D03*
X17423D02*
D03*
X17226D02*
D03*
X17029D02*
D03*
X16832D02*
D03*
X16636D02*
D03*
X16439D02*
D03*
X16242D02*
D03*
X16045D02*
D03*
X15848D02*
D03*
X15651D02*
D03*
X15454D02*
D03*
X15258D02*
D03*
X15061D02*
D03*
X14864D02*
D03*
D66*
X20208Y-4862D02*
D03*
Y-4665D02*
D03*
Y-4469D02*
D03*
Y-4272D02*
D03*
Y-4075D02*
D03*
Y-3878D02*
D03*
Y-3681D02*
D03*
Y-3484D02*
D03*
Y-3287D02*
D03*
Y-3091D02*
D03*
Y-2894D02*
D03*
Y-2697D02*
D03*
Y-2500D02*
D03*
Y-2303D02*
D03*
Y-2106D02*
D03*
Y-1909D02*
D03*
Y-1713D02*
D03*
Y-1516D02*
D03*
Y-1319D02*
D03*
Y-1122D02*
D03*
Y-925D02*
D03*
Y-728D02*
D03*
Y-531D02*
D03*
Y-335D02*
D03*
Y-138D02*
D03*
X14244D02*
D03*
Y-335D02*
D03*
Y-531D02*
D03*
Y-728D02*
D03*
Y-925D02*
D03*
Y-1122D02*
D03*
Y-1319D02*
D03*
Y-1516D02*
D03*
Y-1713D02*
D03*
Y-1909D02*
D03*
Y-2106D02*
D03*
Y-2303D02*
D03*
Y-2500D02*
D03*
Y-2697D02*
D03*
Y-2894D02*
D03*
Y-3091D02*
D03*
Y-3287D02*
D03*
Y-3484D02*
D03*
Y-3681D02*
D03*
Y-3878D02*
D03*
Y-4075D02*
D03*
Y-4272D02*
D03*
Y-4469D02*
D03*
Y-4665D02*
D03*
Y-4862D02*
D03*
D67*
X8809Y-10172D02*
D03*
X8120D02*
D03*
X7431D02*
D03*
Y-11628D02*
D03*
X8120D02*
D03*
X8809D02*
D03*
X32500Y5203D02*
D03*
X31811Y4297D02*
D03*
X33189D02*
D03*
D68*
X7775Y3211D02*
D03*
X8563Y2109D02*
D03*
X7775D02*
D03*
X10137D02*
D03*
X10925D02*
D03*
X8563Y3211D02*
D03*
X10137D02*
D03*
X10925D02*
D03*
D69*
X3160Y-9307D02*
D03*
X1192D02*
D03*
X2176D02*
D03*
Y-11473D02*
D03*
X1192D02*
D03*
X3160D02*
D03*
X40106Y9247D02*
D03*
X42074D02*
D03*
X41090D02*
D03*
Y11413D02*
D03*
X42074D02*
D03*
X40106D02*
D03*
D70*
X31759Y-11515D02*
D03*
Y-9940D02*
D03*
X29101Y-11515D02*
D03*
Y-9940D02*
D03*
X46964Y-11515D02*
D03*
Y-9940D02*
D03*
X44307Y-11515D02*
D03*
Y-9940D02*
D03*
X42924Y-11515D02*
D03*
Y-9940D02*
D03*
X40267Y-11515D02*
D03*
Y-9940D02*
D03*
X44307Y-6268D02*
D03*
Y-7843D02*
D03*
X46964Y-6268D02*
D03*
Y-7843D02*
D03*
X40267Y-6268D02*
D03*
Y-7843D02*
D03*
X42924Y-6268D02*
D03*
Y-7843D02*
D03*
D71*
X4650Y8157D02*
D03*
Y7157D02*
D03*
Y4929D02*
D03*
Y3929D02*
D03*
Y-4410D02*
D03*
Y-5410D02*
D03*
D72*
X31000Y8923D02*
D03*
Y10077D02*
D03*
X27000Y8923D02*
D03*
X30000D02*
D03*
X29000Y8923D02*
D03*
X34000Y8923D02*
D03*
X33000D02*
D03*
X27000Y10077D02*
D03*
X30000D02*
D03*
X29000D02*
D03*
X34000D02*
D03*
X33000D02*
D03*
X28000Y8923D02*
D03*
X32000D02*
D03*
X28000Y10077D02*
D03*
X32000D02*
D03*
X7400Y8923D02*
D03*
X13400D02*
D03*
X7400Y10077D02*
D03*
X13400D02*
D03*
X8400Y8923D02*
D03*
X9400Y8923D02*
D03*
X11400D02*
D03*
X12400D02*
D03*
X15400D02*
D03*
X16400D02*
D03*
X8400Y10077D02*
D03*
X9400D02*
D03*
X11400D02*
D03*
X12400D02*
D03*
X15400D02*
D03*
X16400D02*
D03*
X10400Y8923D02*
D03*
X14400Y8923D02*
D03*
X10400Y10077D02*
D03*
X14400D02*
D03*
X22000Y8923D02*
D03*
Y10077D02*
D03*
X18000Y8923D02*
D03*
X21000D02*
D03*
X20000Y8923D02*
D03*
X25000Y8923D02*
D03*
X24000D02*
D03*
X18000Y10077D02*
D03*
X21000D02*
D03*
X20000D02*
D03*
X25000D02*
D03*
X24000D02*
D03*
X19000Y8923D02*
D03*
X23000D02*
D03*
X19000Y10077D02*
D03*
X23000D02*
D03*
X23000Y-8923D02*
D03*
X23000Y-10077D02*
D03*
X25000Y-8923D02*
D03*
X24000D02*
D03*
X21000D02*
D03*
X20000D02*
D03*
X25000Y-10077D02*
D03*
X24000D02*
D03*
X21000D02*
D03*
X20000D02*
D03*
X22000Y-8923D02*
D03*
Y-10077D02*
D03*
X14000Y-8923D02*
D03*
Y-10077D02*
D03*
X18000Y-8923D02*
D03*
X15000D02*
D03*
X16000Y-8923D02*
D03*
X11000Y-8923D02*
D03*
X12000D02*
D03*
X18000Y-10077D02*
D03*
X15000D02*
D03*
X16000D02*
D03*
X11000D02*
D03*
X12000D02*
D03*
X17000Y-8923D02*
D03*
X13000D02*
D03*
X17000Y-10077D02*
D03*
X13000D02*
D03*
X19400Y6077D02*
D03*
Y4923D02*
D03*
X18400Y6077D02*
D03*
Y4923D02*
D03*
X17400Y6077D02*
D03*
Y4923D02*
D03*
X13400Y6077D02*
D03*
Y4923D02*
D03*
X14400Y6077D02*
D03*
Y4923D02*
D03*
X8400Y6077D02*
D03*
Y4923D02*
D03*
X9400D02*
D03*
Y6077D02*
D03*
X10400Y4923D02*
D03*
Y6077D02*
D03*
X12400Y4923D02*
D03*
Y6077D02*
D03*
X11400Y4923D02*
D03*
Y6077D02*
D03*
X7400D02*
D03*
Y4923D02*
D03*
X16400D02*
D03*
Y6077D02*
D03*
X15400Y4923D02*
D03*
Y6077D02*
D03*
D73*
X24675Y1500D02*
D03*
X26425D02*
D03*
X24675Y500D02*
D03*
X26425D02*
D03*
X24675Y-500D02*
D03*
X26425D02*
D03*
X36625Y8500D02*
D03*
X38375D02*
D03*
X36625Y7500D02*
D03*
X38375D02*
D03*
X36625Y6500D02*
D03*
X38375D02*
D03*
X36625Y5500D02*
D03*
X38375D02*
D03*
X36625Y4500D02*
D03*
X38375D02*
D03*
X36625Y3500D02*
D03*
X38375D02*
D03*
D74*
X12849Y-4225D02*
D03*
Y-4795D02*
D03*
X13183D02*
D03*
Y-4225D02*
D03*
D75*
X46583Y7227D02*
D03*
X46033D02*
D03*
X44083D02*
D03*
X43533D02*
D03*
X46583Y8727D02*
D03*
X46033D02*
D03*
X44083D02*
D03*
X43533D02*
D03*
D76*
X484Y-8297D02*
D03*
Y-6643D02*
D03*
D77*
X2010Y-7667D02*
D03*
Y-7273D02*
D03*
D78*
X49487Y-8827D02*
D03*
X48700D02*
D03*
X48897D02*
D03*
X49094D02*
D03*
X49290D02*
D03*
D79*
X48346Y-9733D02*
D03*
X49842D02*
D03*
D80*
X34067Y-10135D02*
D03*
X36586D02*
D03*
D81*
X35799Y-11100D02*
D03*
X34854D02*
D03*
D82*
X35838Y-10046D02*
D03*
X35582D02*
D03*
X34815D02*
D03*
X35071D02*
D03*
X35326D02*
D03*
D83*
X2330Y1260D02*
D03*
Y-1260D02*
D03*
D84*
X1365Y-472D02*
D03*
Y472D02*
D03*
D85*
X2418Y-512D02*
D03*
Y-256D02*
D03*
Y512D02*
D03*
Y256D02*
D03*
Y-0D02*
D03*
D86*
X49793Y2211D02*
D03*
Y3018D02*
D03*
X50541D02*
D03*
Y2211D02*
D03*
D87*
X49710Y2615D02*
D03*
X50623D02*
D03*
D88*
X6430Y7433D02*
D03*
Y7827D02*
D03*
Y4242D02*
D03*
Y4636D02*
D03*
X49290Y-3947D02*
D03*
Y-3553D02*
D03*
X48900Y-3947D02*
D03*
Y-3553D02*
D03*
D89*
X49705Y-3130D02*
D03*
X49312D02*
D03*
X48492D02*
D03*
X48885D02*
D03*
D90*
X8849Y-6848D02*
D03*
X9223D02*
D03*
D91*
X9292Y-7204D02*
D03*
X9036D02*
D03*
X8780D02*
D03*
Y-6492D02*
D03*
X9036D02*
D03*
X9292D02*
D03*
D92*
X14199Y-6718D02*
D03*
X14021D02*
D03*
D93*
X14110Y-6442D02*
D03*
D94*
X11872Y-4699D02*
D03*
Y-4521D02*
D03*
D95*
X12148Y-4610D02*
D03*
D96*
X5480Y-7717D02*
D03*
Y-7343D02*
D03*
X5950Y2563D02*
D03*
Y2937D02*
D03*
X4160Y10697D02*
D03*
Y10323D02*
D03*
X21553Y5567D02*
D03*
Y5193D02*
D03*
D97*
X5836Y-7274D02*
D03*
Y-7530D02*
D03*
Y-7786D02*
D03*
X5124D02*
D03*
Y-7530D02*
D03*
Y-7274D02*
D03*
X6306Y3006D02*
D03*
Y2750D02*
D03*
Y2494D02*
D03*
X5594D02*
D03*
Y2750D02*
D03*
Y3006D02*
D03*
X3804Y10254D02*
D03*
Y10510D02*
D03*
Y10766D02*
D03*
X4516D02*
D03*
Y10510D02*
D03*
Y10254D02*
D03*
X21197Y5124D02*
D03*
Y5380D02*
D03*
Y5636D02*
D03*
X21910D02*
D03*
Y5380D02*
D03*
Y5124D02*
D03*
D98*
X9641Y-3509D02*
D03*
Y-4691D02*
D03*
D99*
X9700Y-4100D02*
D03*
D100*
X6850Y-4953D02*
D03*
Y-4087D02*
D03*
X6340Y-2723D02*
D03*
Y-1857D02*
D03*
D101*
X2936Y-1357D02*
D03*
Y-983D02*
D03*
X36856Y-7763D02*
D03*
Y-8137D02*
D03*
X33113Y-9423D02*
D03*
Y-9797D02*
D03*
D102*
X7680Y-2690D02*
D03*
D103*
Y-1764D02*
D03*
D104*
X9690Y-947D02*
D03*
Y-616D02*
D03*
X9050Y-947D02*
D03*
Y-616D02*
D03*
X10010Y-947D02*
D03*
Y-616D02*
D03*
X9370Y-947D02*
D03*
Y-616D02*
D03*
D105*
X4121Y534D02*
D03*
D106*
X3452D02*
D03*
Y-274D02*
D03*
X4200D02*
D03*
D107*
X34804Y-8134D02*
D03*
D108*
Y-8803D02*
D03*
X35611D02*
D03*
Y-8055D02*
D03*
D109*
X8528Y-9190D02*
D03*
X8752D02*
D03*
X10028Y-7430D02*
D03*
X10252D02*
D03*
X9408Y-7610D02*
D03*
X9632D02*
D03*
X7408Y-9190D02*
D03*
X7632D02*
D03*
X7398Y-5600D02*
D03*
X7622D02*
D03*
X10952Y-1400D02*
D03*
X10728D02*
D03*
X5958D02*
D03*
X6182D02*
D03*
X2684Y2697D02*
D03*
X2908D02*
D03*
X1216Y-2190D02*
D03*
X1441D02*
D03*
X4234Y-660D02*
D03*
X4458D02*
D03*
X3262Y2020D02*
D03*
X3038D02*
D03*
X35902Y-4070D02*
D03*
X35678D02*
D03*
X31262Y-4640D02*
D03*
X31038D02*
D03*
X28102Y-4550D02*
D03*
X27878D02*
D03*
X20958Y-2760D02*
D03*
X21182D02*
D03*
X19548Y1330D02*
D03*
X19324D02*
D03*
X19148Y-6070D02*
D03*
X19372D02*
D03*
X17608Y1250D02*
D03*
X17384D02*
D03*
X16352Y-6050D02*
D03*
X16128D02*
D03*
X15488Y1080D02*
D03*
X15264D02*
D03*
X14944Y-6060D02*
D03*
X15168D02*
D03*
X13304Y-3080D02*
D03*
X13528D02*
D03*
X13568Y-2350D02*
D03*
X13344D02*
D03*
X12388Y3020D02*
D03*
X12612D02*
D03*
X34672Y-6610D02*
D03*
X34448D02*
D03*
X31772Y-3940D02*
D03*
X31548D02*
D03*
X32528D02*
D03*
X32752D02*
D03*
X22062Y3600D02*
D03*
X21838D02*
D03*
Y3300D02*
D03*
X22062D02*
D03*
X21838Y3000D02*
D03*
X22062D02*
D03*
X21838Y2700D02*
D03*
X22062D02*
D03*
X13398Y-6690D02*
D03*
X13622D02*
D03*
X10092Y-10680D02*
D03*
X9868D02*
D03*
X11312Y-5960D02*
D03*
X11088D02*
D03*
X5762Y-6770D02*
D03*
X5538D02*
D03*
X7878Y-5380D02*
D03*
X8102D02*
D03*
X7388Y-5380D02*
D03*
X7612D02*
D03*
X1216Y-1910D02*
D03*
X1441D02*
D03*
X31502Y-7350D02*
D03*
X31278D02*
D03*
X47311Y7227D02*
D03*
X47086D02*
D03*
X44821D02*
D03*
X44596D02*
D03*
X29428Y-7350D02*
D03*
X29652D02*
D03*
X47311Y8727D02*
D03*
X47086D02*
D03*
X44821D02*
D03*
X44596D02*
D03*
X5872Y2040D02*
D03*
X5648D02*
D03*
X20958Y-1580D02*
D03*
X21182D02*
D03*
X18302Y-6060D02*
D03*
X18078D02*
D03*
X17318D02*
D03*
X17542D02*
D03*
X41398Y8490D02*
D03*
X41622D02*
D03*
X8972Y-7610D02*
D03*
X8748D02*
D03*
D110*
X8015Y-3530D02*
D03*
X8605D02*
D03*
D111*
X31500Y-2268D02*
D03*
X32000D02*
D03*
X32500D02*
D03*
X31500Y-732D02*
D03*
X32000D02*
D03*
X32500D02*
D03*
X33000Y-2268D02*
D03*
X33500D02*
D03*
X33000Y-732D02*
D03*
X33500D02*
D03*
D112*
X762Y9640D02*
D03*
Y10640D02*
D03*
Y10140D02*
D03*
Y11140D02*
D03*
Y11640D02*
D03*
X2298Y9640D02*
D03*
Y10140D02*
D03*
Y10640D02*
D03*
Y11140D02*
D03*
Y11640D02*
D03*
D113*
X50973Y11100D02*
D03*
X5411Y-11380D02*
D03*
M02*
