G04*
G04 #@! TF.GenerationSoftware,Altium Limited,Altium Designer,19.0.15 (446)*
G04*
G04 Layer_Color=128*
%FSLAX24Y24*%
%MOIN*%
G70*
G01*
G75*
%ADD72R,0.0402X0.0862*%
%ADD113C,0.0394*%
%ADD241R,0.1654X0.1260*%
%ADD242R,0.0874X0.0402*%
D72*
X18400Y4923D02*
D03*
Y6077D02*
D03*
X17400Y4923D02*
D03*
Y6077D02*
D03*
X13400Y4923D02*
D03*
Y6077D02*
D03*
X14400Y4923D02*
D03*
Y6077D02*
D03*
X8400Y4923D02*
D03*
Y6077D02*
D03*
X9400D02*
D03*
Y4923D02*
D03*
X10400Y6077D02*
D03*
Y4923D02*
D03*
X12400Y6077D02*
D03*
Y4923D02*
D03*
X11400Y6077D02*
D03*
Y4923D02*
D03*
X7400D02*
D03*
Y6077D02*
D03*
X16400D02*
D03*
Y4923D02*
D03*
X15400Y6077D02*
D03*
Y4923D02*
D03*
X19400Y6077D02*
D03*
Y4923D02*
D03*
X10400Y10077D02*
D03*
Y8923D02*
D03*
X9400Y10077D02*
D03*
Y8923D02*
D03*
X15400Y10077D02*
D03*
Y8923D02*
D03*
X14400D02*
D03*
Y10077D02*
D03*
X13400Y8923D02*
D03*
Y10077D02*
D03*
X11400Y8923D02*
D03*
Y10077D02*
D03*
X12400Y8923D02*
D03*
Y10077D02*
D03*
X16400D02*
D03*
Y8923D02*
D03*
X7400D02*
D03*
Y10077D02*
D03*
X8400Y8923D02*
D03*
Y10077D02*
D03*
X34000Y8923D02*
D03*
Y10077D02*
D03*
X30000D02*
D03*
Y8923D02*
D03*
X29000Y10077D02*
D03*
Y8923D02*
D03*
X31000Y10077D02*
D03*
Y8923D02*
D03*
X32000Y10077D02*
D03*
Y8923D02*
D03*
X33000D02*
D03*
Y10077D02*
D03*
X27000Y8923D02*
D03*
Y10077D02*
D03*
X28000Y8923D02*
D03*
Y10077D02*
D03*
X25000Y8923D02*
D03*
Y10077D02*
D03*
X21000D02*
D03*
Y8923D02*
D03*
X20000Y10077D02*
D03*
Y8923D02*
D03*
X22000Y10077D02*
D03*
Y8923D02*
D03*
X23000Y10077D02*
D03*
Y8923D02*
D03*
X24000D02*
D03*
Y10077D02*
D03*
X18000Y8923D02*
D03*
Y10077D02*
D03*
X19000Y8923D02*
D03*
Y10077D02*
D03*
X11000Y-8923D02*
D03*
Y-10077D02*
D03*
X15000D02*
D03*
Y-8923D02*
D03*
X16000Y-10077D02*
D03*
Y-8923D02*
D03*
X14000Y-10077D02*
D03*
Y-8923D02*
D03*
X13000Y-10077D02*
D03*
Y-8923D02*
D03*
X12000D02*
D03*
Y-10077D02*
D03*
X18000Y-8923D02*
D03*
Y-10077D02*
D03*
X17000Y-8923D02*
D03*
Y-10077D02*
D03*
X21000D02*
D03*
Y-8923D02*
D03*
X22000D02*
D03*
Y-10077D02*
D03*
X23000Y-8923D02*
D03*
Y-10077D02*
D03*
X25000Y-8923D02*
D03*
Y-10077D02*
D03*
X24000Y-8923D02*
D03*
Y-10077D02*
D03*
X20000D02*
D03*
Y-8923D02*
D03*
D113*
X50973Y11100D02*
D03*
X5411Y-11380D02*
D03*
D241*
X4500Y-5774D02*
D03*
Y5762D02*
D03*
D242*
X24438Y-500D02*
D03*
X26662D02*
D03*
X24438Y500D02*
D03*
Y1500D02*
D03*
X26662Y500D02*
D03*
Y1500D02*
D03*
M02*
