G04*
G04 #@! TF.GenerationSoftware,Altium Limited,Altium Designer,19.0.15 (446)*
G04*
G04 Layer_Color=32896*
%FSLAX24Y24*%
%MOIN*%
G70*
G01*
G75*
%ADD22C,0.0080*%
%ADD201C,0.0065*%
%ADD216C,0.0300*%
D22*
X35433Y-6783D02*
X35527D01*
X35621Y-6689D01*
Y-6594D01*
X35433Y-6406D01*
X35339D01*
X35244Y-6500D01*
Y-6594D01*
X35292Y-6641D01*
X35386D01*
X35527Y-6500D01*
Y-6312D02*
Y-6217D01*
X35621Y-6123D01*
X35716D01*
X35904Y-6312D01*
Y-6406D01*
X35810Y-6500D01*
X35716D01*
X35527Y-6312D01*
X36093Y-6217D02*
X36187Y-6123D01*
Y-6029D01*
X36093Y-5935D01*
X35998D01*
X35904Y-6029D01*
Y-6123D01*
X35998Y-6217D01*
X36093D01*
X36045Y-5699D02*
X36328Y-5982D01*
X36187Y-5840D01*
Y-5746D01*
X36281Y-5652D01*
X36375D01*
X36517Y-5793D01*
X36611Y-5699D02*
X36423Y-5510D01*
X36470Y-5463D01*
X36564D01*
X36705Y-5605D01*
X36564Y-5463D01*
Y-5369D01*
X36658D01*
X36800Y-5510D01*
X37082Y-4662D02*
X37365Y-4945D01*
X37224Y-5086D01*
X37129D01*
X37035Y-4992D01*
Y-4898D01*
X37177Y-4756D01*
X37459Y-4851D02*
X37554Y-4756D01*
X37506Y-4804D01*
X37318Y-4615D01*
X37271Y-4662D01*
X37742Y-4568D02*
X37506Y-4332D01*
X37601Y-4427D01*
X37554Y-4474D01*
X37648Y-4379D01*
X37601Y-4427D01*
X37506Y-4332D01*
Y-4238D01*
X37978Y-4332D02*
X37742Y-4097D01*
X37836Y-4191D01*
X37789Y-4238D01*
X37883Y-4144D01*
X37836Y-4191D01*
X37742Y-4097D01*
Y-4002D01*
X38308D02*
X38213Y-4097D01*
X38119D01*
X38025Y-4002D01*
Y-3908D01*
X38119Y-3814D01*
X38213D01*
X38260Y-3861D01*
X38072Y-4050D01*
X38260Y-3673D02*
X38449Y-3861D01*
X38355Y-3767D01*
Y-3673D01*
Y-3578D01*
X38402Y-3531D01*
X38873Y-3437D02*
X38779Y-3531D01*
X38685D01*
X38590Y-3437D01*
Y-3343D01*
X38685Y-3248D01*
X38779D01*
X38826Y-3296D01*
X38637Y-3484D01*
X39014Y-3296D02*
X38826Y-3107D01*
X38967Y-2966D01*
X39062D01*
X39203Y-3107D01*
X39297Y-3013D02*
X39439Y-2871D01*
Y-2777D01*
X39344D01*
X39250Y-2871D01*
X39156D01*
Y-2777D01*
X39297Y-2636D01*
X39580Y-2730D02*
X39674Y-2636D01*
X39627Y-2683D01*
X39439Y-2494D01*
X39391Y-2542D01*
X39674Y-2259D02*
X39768Y-2165D01*
X39863D01*
X40004Y-2306D01*
X39863Y-2447D01*
X39768D01*
Y-2353D01*
X39910Y-2212D01*
X40098Y-2212D02*
X40193Y-2117D01*
X40145Y-2165D01*
X39863Y-1882D01*
X39816Y-1929D01*
X40617Y-1693D02*
X40711Y-1599D01*
X40664Y-1646D01*
X40475Y-1458D01*
X40428Y-1505D01*
X40852Y-1458D02*
X40664Y-1269D01*
X40711Y-1222D01*
X40805D01*
X40947Y-1363D01*
X40805Y-1222D01*
Y-1128D01*
X40899D01*
X41041Y-1269D01*
X41229D02*
X40947Y-986D01*
X41088Y-845D01*
X41182D01*
X41276Y-939D01*
Y-1034D01*
X41135Y-1175D01*
X41559Y-751D02*
X41465Y-845D01*
X41371D01*
X41276Y-751D01*
Y-657D01*
X41371Y-562D01*
X41465D01*
X41512Y-609D01*
X41324Y-798D01*
X41606Y-138D02*
X41889Y-421D01*
X41748Y-562D01*
X41653D01*
X41559Y-468D01*
Y-374D01*
X41701Y-232D01*
X41842Y-91D02*
X41936Y3D01*
X42030D01*
X42172Y-138D01*
X42030Y-280D01*
X41936D01*
Y-185D01*
X42078Y-44D01*
X42266Y-44D02*
X42078Y145D01*
X42219Y286D01*
X42313D01*
X42455Y145D01*
X42549Y616D02*
X42407Y474D01*
Y380D01*
X42502Y286D01*
X42596D01*
X42737Y427D01*
X42973Y663D02*
X42879Y569D01*
X42784D01*
X42690Y663D01*
Y757D01*
X42784Y851D01*
X42879D01*
X42926Y804D01*
X42737Y616D01*
X2920Y1497D02*
X2987Y1430D01*
X3120D01*
X3187Y1497D01*
Y1763D01*
X3120Y1830D01*
X2987D01*
X2920Y1763D01*
Y1697D01*
X2987Y1630D01*
X3187D01*
X3320Y1763D02*
X3387Y1830D01*
X3520D01*
X3586Y1763D01*
Y1497D01*
X3520Y1430D01*
X3387D01*
X3320Y1497D01*
Y1763D01*
X3786Y1430D02*
X3920D01*
X3986Y1497D01*
Y1630D01*
X3920Y1697D01*
X3786D01*
X3720Y1630D01*
Y1497D01*
X3786Y1430D01*
X4120Y1830D02*
Y1430D01*
Y1630D01*
X4186Y1697D01*
X4320D01*
X4386Y1630D01*
Y1430D01*
X4519D02*
Y1697D01*
X4586D01*
X4653Y1630D01*
Y1430D01*
Y1630D01*
X4719Y1697D01*
X4786Y1630D01*
Y1430D01*
X5586Y1830D02*
Y1430D01*
X5386D01*
X5319Y1497D01*
Y1630D01*
X5386Y1697D01*
X5586D01*
X5719Y1430D02*
X5852D01*
X5786D01*
Y1697D01*
X5719D01*
X6119Y1430D02*
Y1763D01*
Y1630D01*
X6052D01*
X6186D01*
X6119D01*
Y1763D01*
X6186Y1830D01*
X6452Y1430D02*
Y1763D01*
Y1630D01*
X6386D01*
X6519D01*
X6452D01*
Y1763D01*
X6519Y1830D01*
X6919Y1430D02*
X6785D01*
X6719Y1497D01*
Y1630D01*
X6785Y1697D01*
X6919D01*
X6985Y1630D01*
Y1563D01*
X6719D01*
X7119Y1697D02*
Y1430D01*
Y1563D01*
X7185Y1630D01*
X7252Y1697D01*
X7319D01*
X7718Y1430D02*
X7585D01*
X7519Y1497D01*
Y1630D01*
X7585Y1697D01*
X7718D01*
X7785Y1630D01*
Y1563D01*
X7519D01*
X7918Y1430D02*
Y1697D01*
X8118D01*
X8185Y1630D01*
Y1430D01*
X8318D02*
X8518D01*
X8585Y1497D01*
X8518Y1563D01*
X8385D01*
X8318Y1630D01*
X8385Y1697D01*
X8585D01*
X8718Y1430D02*
X8851D01*
X8785D01*
Y1697D01*
X8718D01*
X9118D02*
X9251D01*
X9318Y1630D01*
Y1430D01*
X9118D01*
X9051Y1497D01*
X9118Y1563D01*
X9318D01*
X9451Y1430D02*
X9585D01*
X9518D01*
Y1830D01*
X9451D01*
X10184Y1430D02*
X10318D01*
X10251D01*
Y1697D01*
X10184D01*
X10518Y1430D02*
Y1697D01*
X10584D01*
X10651Y1630D01*
Y1430D01*
Y1630D01*
X10717Y1697D01*
X10784Y1630D01*
Y1430D01*
X10917Y1297D02*
Y1697D01*
X11117D01*
X11184Y1630D01*
Y1497D01*
X11117Y1430D01*
X10917D01*
X11517D02*
X11384D01*
X11317Y1497D01*
Y1630D01*
X11384Y1697D01*
X11517D01*
X11584Y1630D01*
Y1563D01*
X11317D01*
X11984Y1830D02*
Y1430D01*
X11784D01*
X11717Y1497D01*
Y1630D01*
X11784Y1697D01*
X11984D01*
X12184D02*
X12317D01*
X12384Y1630D01*
Y1430D01*
X12184D01*
X12117Y1497D01*
X12184Y1563D01*
X12384D01*
X12517Y1430D02*
Y1697D01*
X12717D01*
X12783Y1630D01*
Y1430D01*
X13183Y1697D02*
X12983D01*
X12917Y1630D01*
Y1497D01*
X12983Y1430D01*
X13183D01*
X13517D02*
X13383D01*
X13317Y1497D01*
Y1630D01*
X13383Y1697D01*
X13517D01*
X13583Y1630D01*
Y1563D01*
X13317D01*
X45867Y3400D02*
X45600D01*
Y3200D01*
X45733Y3267D01*
X45800D01*
X45867Y3200D01*
Y3067D01*
X45800Y3000D01*
X45667D01*
X45600Y3067D01*
X46000Y3333D02*
X46067Y3400D01*
X46200D01*
X46266Y3333D01*
Y3067D01*
X46200Y3000D01*
X46067D01*
X46000Y3067D01*
Y3333D01*
X46466Y3000D02*
X46600D01*
X46666Y3067D01*
Y3200D01*
X46600Y3267D01*
X46466D01*
X46400Y3200D01*
Y3067D01*
X46466Y3000D01*
X46800Y3400D02*
Y3000D01*
Y3200D01*
X46866Y3267D01*
X47000D01*
X47066Y3200D01*
Y3000D01*
X47199D02*
Y3267D01*
X47266D01*
X47333Y3200D01*
Y3000D01*
Y3200D01*
X47399Y3267D01*
X47466Y3200D01*
Y3000D01*
X47999D02*
X48133D01*
X48066D01*
Y3267D01*
X47999D01*
X48332Y3000D02*
Y3267D01*
X48399D01*
X48466Y3200D01*
Y3000D01*
Y3200D01*
X48532Y3267D01*
X48599Y3200D01*
Y3000D01*
X48732Y2867D02*
Y3267D01*
X48932D01*
X48999Y3200D01*
Y3067D01*
X48932Y3000D01*
X48732D01*
X49332D02*
X49199D01*
X49132Y3067D01*
Y3200D01*
X49199Y3267D01*
X49332D01*
X49399Y3200D01*
Y3133D01*
X49132D01*
X49799Y3400D02*
Y3000D01*
X49599D01*
X49532Y3067D01*
Y3200D01*
X49599Y3267D01*
X49799D01*
X49999D02*
X50132D01*
X50199Y3200D01*
Y3000D01*
X49999D01*
X49932Y3067D01*
X49999Y3133D01*
X50199D01*
X50332Y3000D02*
Y3267D01*
X50532D01*
X50598Y3200D01*
Y3000D01*
X50998Y3267D02*
X50798D01*
X50732Y3200D01*
Y3067D01*
X50798Y3000D01*
X50998D01*
X51331D02*
X51198D01*
X51132Y3067D01*
Y3200D01*
X51198Y3267D01*
X51331D01*
X51398Y3200D01*
Y3133D01*
X51132D01*
D201*
X6324Y816D02*
G03*
X5946Y659I0J-535D01*
G01*
X6328Y957D02*
G03*
X5841Y755I0J-688D01*
G01*
X5178Y200D02*
G03*
X5366Y278I0J266D01*
G01*
X5176Y60D02*
G03*
X5466Y180I0J410D01*
G01*
X3916Y24D02*
G03*
X3830Y60I-86J-86D01*
G01*
X3949Y-9D02*
G03*
X4160Y-96I211J211D01*
G01*
D02*
G03*
X4370Y-10I0J297D01*
G01*
X4490Y60D02*
G03*
X4403Y24I0J-123D01*
G01*
X4530Y200D02*
G03*
X4617Y236I0J123D01*
G01*
X4860Y356D02*
G03*
X4650Y269I0J-297D01*
G01*
X5071Y269D02*
G03*
X4860Y356I-211J-211D01*
G01*
X5104Y236D02*
G03*
X5190Y200I86J86D01*
G01*
X35960Y-6860D02*
G03*
X35135Y-7685I0J-825D01*
G01*
X35960Y-6860D02*
G03*
X36540Y-6620I0J821D01*
G01*
X35960Y-7000D02*
G03*
X35276Y-7684I0J-684D01*
G01*
X35960Y-7000D02*
G03*
X36641Y-6718I0J964D01*
G01*
X37400Y-5758D02*
G03*
X37088Y-6070I80J-392D01*
G01*
X36820Y-6540D02*
G03*
X37120Y-6240I-90J390D01*
G01*
X42573Y-1059D02*
G03*
X41767Y-1393I0J-1141D01*
G01*
X42573Y-1200D02*
G03*
X41866Y-1493I0J-1000D01*
G01*
X44604Y-1200D02*
G03*
X44995Y-810I0J390D01*
G01*
X44604Y-1059D02*
G03*
X44854Y-810I0J249D01*
G01*
X44854Y282D02*
G03*
X44780Y460I-251J0D01*
G01*
X44620Y910D02*
G03*
X44684Y755I219J0D01*
G01*
X44995Y282D02*
G03*
X44880Y560I-392J0D01*
G01*
X44479Y910D02*
G03*
X44584Y656I360J0D01*
G01*
X3367Y200D02*
X4530D01*
X6324Y957D02*
X13546D01*
X5466Y180D02*
X5950Y663D01*
X6324Y816D02*
X13546D01*
X5366Y278D02*
X5842Y754D01*
X3916Y24D02*
X3949Y-9D01*
X3367Y60D02*
X3830D01*
X4490D02*
X5176D01*
X4370Y-10D02*
X4403Y24D01*
X4617Y236D02*
X4650Y269D01*
X5071Y269D02*
X5104Y236D01*
X35135Y-8288D02*
Y-7685D01*
X36540Y-6620D02*
X37080Y-6080D01*
X35276Y-8289D02*
Y-7684D01*
X37120Y-6240D02*
X41866Y-1493D01*
X37401Y-5759D02*
X41767Y-1393D01*
X36641Y-6718D02*
X36820Y-6540D01*
X44995Y-810D02*
Y-680D01*
X44854Y-810D02*
Y-680D01*
X42573Y-1200D02*
X44604D01*
X42573Y-1059D02*
X44604D01*
X44481Y910D02*
Y1003D01*
X44584Y656D02*
X44780Y460D01*
X44854Y100D02*
Y282D01*
X44620Y910D02*
Y999D01*
X44684Y755D02*
X44880Y560D01*
X44995Y100D02*
Y282D01*
D216*
X47906Y2610D02*
X49705D01*
M02*
